<svg width="186" height="74" viewBox="0 0 186 74" fill="none" xmlns="http://www.w3.org/2000/svg">
<g clip-path="url(#clip0)">
<path d="M149.998 71.3766C146.471 71.3764 142.964 70.8443 139.594 69.7979L139.576 69.7921C139.345 69.72 139.139 69.6551 138.943 69.5901L138.677 69.5007L138.572 69.4646L138.356 69.3924C138.12 69.3095 137.871 69.2193 137.602 69.1175C137.53 69.0908 137.458 69.0634 137.386 69.0346H137.377C137.278 68.997 137.178 68.9581 137.079 68.9184L137.061 68.9112L137.009 68.8903C136.898 68.8462 136.794 68.8044 136.688 68.7611C136.244 68.5793 135.783 68.3794 135.318 68.1666L135.246 68.1327C135.167 68.0959 135.087 68.0605 135.008 68.0223L134.993 68.0151L134.984 68.01C134.973 68.0059 134.962 68.0011 134.951 67.9956L134.879 67.9595L134.716 67.8816L134.708 67.8772C134.673 67.8599 134.636 67.8419 134.602 67.8253L134.575 67.813C134.399 67.7272 134.21 67.6327 133.98 67.515C133.867 67.458 133.756 67.4003 133.645 67.3419L133.492 67.2604C128.331 64.519 123.917 60.5458 120.639 55.6894C120.592 55.6188 120.559 55.5394 120.542 55.4559C120.525 55.3723 120.524 55.2862 120.54 55.2025C120.556 55.1187 120.588 55.039 120.635 54.9678C120.682 54.8966 120.742 54.8353 120.812 54.7875C120.883 54.7397 120.961 54.7063 121.045 54.6892C121.128 54.672 121.213 54.6715 121.297 54.6877C121.38 54.7038 121.459 54.7363 121.53 54.7833C121.601 54.8302 121.662 54.8908 121.709 54.9614C124.869 59.6425 129.123 63.472 134.099 66.1139L134.242 66.1911C134.348 66.2473 134.455 66.3024 134.561 66.3563C134.777 66.466 134.955 66.5554 135.12 66.6355H135.128C135.179 66.6593 135.229 66.6846 135.28 66.7077L135.433 66.7798L135.495 66.8094C135.519 66.8195 135.542 66.8303 135.567 66.8419C135.638 66.8772 135.715 66.914 135.789 66.9458L135.861 66.979C136.306 67.1824 136.752 67.3758 137.181 67.5511C137.281 67.5922 137.379 67.6327 137.479 67.6716C137.505 67.6817 137.536 67.6933 137.566 67.7062L137.845 67.8152L137.862 67.8217C137.928 67.8469 137.993 67.8722 138.06 67.8938C138.323 67.9927 138.562 68.08 138.794 68.1608C138.866 68.1868 138.933 68.2099 138.999 68.2329L139.093 68.2647L139.105 68.269C139.189 68.2979 139.272 68.326 139.356 68.3534C139.543 68.4155 139.743 68.479 139.963 68.5475H139.974H139.985C144.21 69.8594 148.649 70.3294 153.054 69.9314L153.193 69.9184H153.214C156.452 69.6094 159.631 68.8433 162.657 67.6428C164.395 66.9516 166.074 66.1173 167.676 65.1485C167.78 65.085 167.885 65.0215 167.988 64.9573C168.091 64.8931 168.196 64.8274 168.299 64.7617C168.658 64.5345 169.012 64.2993 169.355 64.0633C169.427 64.0128 169.498 63.9652 169.564 63.919L169.587 63.9039L169.647 63.8613L169.664 63.849C169.746 63.792 169.827 63.735 169.908 63.6766L169.917 63.6701L169.94 63.6535L169.959 63.6391C170.049 63.5751 170.139 63.5094 170.229 63.4421L170.241 63.4334C170.255 63.4241 170.269 63.414 170.283 63.4031L170.294 63.3945L170.353 63.3505L170.521 63.2256L170.624 63.1477C170.719 63.0756 170.812 63.0034 170.903 62.9313L170.91 62.9269C170.982 62.8714 171.076 62.7985 171.17 62.722L171.181 62.7134C171.305 62.6167 171.429 62.5178 171.548 62.4197C171.731 62.2704 171.919 62.1145 172.107 61.9536C172.193 61.8815 172.277 61.8093 172.361 61.7372L172.372 61.7278L172.389 61.7133C172.478 61.6361 172.567 61.5575 172.656 61.4789C176.198 58.3412 179.056 54.4993 181.049 50.1955C183.041 45.8917 184.125 41.2194 184.232 36.4733V36.4618C184.24 36.0772 184.242 35.6941 184.238 35.3232C184.217 33.5897 184.066 31.8601 183.788 30.1492C183.716 29.6983 183.632 29.2452 183.542 28.8036C183.389 28.0511 183.21 27.3 183.012 26.5669C179.905 15.1562 170.941 5.9987 159.62 2.66747C159.249 2.5578 158.87 2.45101 158.492 2.3565C155.323 1.54071 152.054 1.19004 148.785 1.31535C147.869 1.35071 146.942 1.42358 146.033 1.53181C145.84 1.55417 145.651 1.57798 145.452 1.60396C144.707 1.70569 143.945 1.83556 143.198 1.98852C138.244 2.99815 133.575 5.10302 129.529 8.15074C125.484 11.1985 122.163 15.1127 119.807 19.6101C119.727 19.7623 119.59 19.8763 119.426 19.927C119.263 19.9776 119.086 19.9608 118.934 19.8803C118.783 19.7997 118.669 19.662 118.619 19.4974C118.569 19.3328 118.585 19.1548 118.665 19.0026C121.111 14.3389 124.556 10.28 128.753 7.11951C132.95 3.95901 137.792 1.77589 142.931 0.728038C143.708 0.569305 144.494 0.435103 145.266 0.32904C145.471 0.300901 145.674 0.274927 145.871 0.251838C146.813 0.137839 147.775 0.06208 148.726 0.0260043C152.119 -0.103676 155.513 0.260856 158.802 1.10828C159.194 1.20857 159.588 1.31752 159.973 1.43079C165.788 3.13787 171.072 6.31338 175.321 10.655C179.571 14.9965 182.644 20.3596 184.249 26.2336C184.455 26.9919 184.64 27.7711 184.798 28.5511C184.892 29.01 184.978 29.4797 185.054 29.9472C185.343 31.7227 185.499 33.5177 185.521 35.3167C185.525 35.6991 185.521 36.0945 185.515 36.4914V36.5043C185.473 38.3926 185.281 40.2745 184.941 42.1322C183.49 50.0026 179.462 57.1583 173.497 62.4594L173.221 62.7018L173.215 62.7062L173.191 62.7271C173.104 62.8036 173.016 62.8786 172.927 62.9529C172.734 63.1189 172.539 63.2812 172.35 63.4349C172.226 63.5366 172.096 63.6405 171.965 63.7422C171.861 63.8267 171.76 63.9053 171.683 63.9652C171.586 64.0409 171.488 64.1153 171.391 64.1896L171.284 64.2697L171.107 64.4017L171.053 64.4414C171.027 64.4616 171.001 64.4804 170.976 64.4984C170.885 64.5655 170.794 64.6319 170.704 64.6968L170.646 64.7387C170.562 64.8 170.477 64.8591 170.392 64.9183C170.359 64.9428 170.326 64.9669 170.291 64.9905C170.22 65.0431 170.142 65.0958 170.067 65.147C169.717 65.388 169.349 65.6319 168.977 65.8685C168.869 65.9373 168.761 66.0052 168.652 66.072C168.547 66.1377 168.437 66.2033 168.33 66.269C166.667 67.2755 164.924 68.1419 163.119 68.8592C159.979 70.1055 156.681 70.9003 153.32 71.22H153.298L153.151 71.233C152.106 71.329 151.052 71.3766 149.998 71.3766ZM137.881 67.8361H137.886H137.881ZM137.838 67.8188L137.847 67.8224L137.838 67.8188Z" fill="#00BCBE"/>
<path d="M162.831 51.0782C163.148 56.0941 159.961 60.2414 156.189 64.2242C151.586 69.4191 145.001 72.7034 137.513 73.8008C131.973 73.4675 126.402 72.2301 121.433 70.2438C149.734 74.1616 167.441 45.4366 146.365 29.1975C156.122 33.5858 162.81 42.1436 162.831 51.0782Z" fill="url(#paint0_linear)"/>
<path d="M176.004 43.3082C175.724 59.7898 157.994 73.2121 137.512 73.8009C131.437 73.4091 125.403 72.0122 120.049 69.6716C160.986 76.0325 183.865 33.8037 151.314 13.2492C165.324 18.2789 176.923 30.2199 176.004 43.3082Z" fill="url(#paint1_linear)"/>
<path d="M185.999 37.0859C185.612 63.051 157.531 77.0181 133.774 73.4502C174.345 73.6753 196.192 21.5546 153.779 2.44595C171.761 7.13219 186.197 20.2443 185.999 37.0859Z" fill="url(#paint2_linear)"/>
<path d="M26.3604 24.7718L23.3992 50.4844H15.0974C14.3373 46.5343 13.6676 42.0398 13.0883 37.0007C12.8229 39.1609 12.2046 43.6555 11.2335 50.4844H2.98203L0 24.7718H6.45771L7.16017 33.7431L7.83966 42.4164C8.08505 37.9276 8.69782 32.0461 9.67796 24.7718H16.5827C16.6745 25.5236 16.9163 28.3505 17.3081 33.2525L18.0421 43.0362C18.4205 36.8114 19.0392 30.7233 19.8984 24.7718H26.3604Z" fill="white"/>
<path d="M38.8489 24.7718L42.6517 50.4844H35.8561L35.4973 45.8631H33.1209L32.7191 50.4844H25.8466L29.2384 24.7718H38.8489ZM35.3251 41.3046C34.9903 38.3925 34.6528 34.7926 34.3127 30.5049C33.6329 35.4285 33.2075 39.0284 33.0362 41.3046H35.3251Z" fill="white"/>
<path d="M58.88 24.7718L55.4961 50.4844H45.3955L41.5539 24.7718H48.5663C49.3795 31.8551 49.9614 37.8478 50.312 42.7497C50.655 37.7954 51.0195 33.3965 51.4055 29.5533L51.8676 24.7718H58.88Z" fill="white"/>
<path d="M60.0014 24.7718H71.0886V29.9176H66.6507V34.7936H70.8045V39.6833H66.6507V45.3371H71.5299V50.4844H60.0014V24.7718Z" fill="white"/>
<path d="M94.6693 35.9682H88.02V31.4992C88.02 30.2005 87.9483 29.3897 87.8048 29.0669C87.6613 28.7442 87.3482 28.5831 86.8655 28.5835C86.3178 28.5835 85.9703 28.7793 85.823 29.1708C85.6756 29.5624 85.6015 30.4094 85.6005 31.712V43.6553C85.6005 44.9059 85.6742 45.7212 85.8215 46.1012C85.9689 46.4812 86.3006 46.6717 86.8167 46.6726C87.3113 46.6726 87.6349 46.4817 87.7875 46.0997C87.9401 45.7178 88.0167 44.821 88.0172 43.4092V40.1776H94.6664V41.179C94.6664 43.8409 94.4794 45.7284 94.1053 46.8415C93.7313 47.9545 92.9054 48.93 91.6277 49.7679C90.3486 50.6054 88.772 51.0243 86.8978 51.0248C84.95 51.0248 83.3441 50.6701 82.0804 49.9606C80.8166 49.2511 79.9794 48.2691 79.569 47.0146C79.1586 45.7602 78.9534 43.8727 78.9534 41.3522V33.839C78.9534 31.9862 79.0165 30.5966 79.1428 29.6701C79.2691 28.7437 79.6456 27.8517 80.2722 26.994C80.8988 26.1364 81.7675 25.4613 82.8782 24.9687C83.989 24.4762 85.2657 24.2302 86.7084 24.2306C88.6663 24.2306 90.2824 24.6111 91.5567 25.3721C92.831 26.133 93.6681 27.0821 94.068 28.2192C94.4684 29.3563 94.6686 31.1247 94.6686 33.5245L94.6693 35.9682Z" fill="white"/>
<path d="M103.703 24.7718V45.3385H107.746V50.4844H97.0551V24.7718H103.703Z" fill="white"/>
<path d="M124.472 24.7718V41.9561C124.472 43.9042 124.409 45.2726 124.283 46.0615C124.157 46.8504 123.783 47.6604 123.161 48.4916C122.527 49.3327 121.679 49.9856 120.705 50.3812C119.689 50.8098 118.492 51.0243 117.112 51.0248C115.585 51.0248 114.237 50.7706 113.069 50.2622C111.9 49.7537 111.026 49.0921 110.447 48.2773C109.868 47.4596 109.526 46.5993 109.421 45.6964C109.316 44.7936 109.263 42.8902 109.262 39.9864V24.7718H115.912V44.0521C115.912 45.1748 115.972 45.8922 116.094 46.2044C116.215 46.5165 116.46 46.6726 116.828 46.6726C117.249 46.6726 117.52 46.5007 117.642 46.1567C117.763 45.8128 117.824 45.0002 117.823 43.7187V24.7718H124.472Z" fill="white"/>
<path d="M127.047 24.7718H133.68C135.776 24.7718 137.363 24.9358 138.442 25.2638C139.521 25.5919 140.392 26.2559 141.056 27.256C141.72 28.256 142.051 29.8674 142.051 32.0901C142.051 33.5923 141.817 34.6397 141.348 35.2323C140.879 35.8249 139.955 36.2799 138.576 36.5974C140.113 36.9466 141.156 37.5265 141.704 38.337C142.251 39.1475 142.525 40.3899 142.525 42.0643V44.4453C142.525 46.1827 142.327 47.4699 141.933 48.3069C141.752 48.7078 141.491 49.067 141.166 49.3623C140.841 49.6575 140.46 49.8826 140.045 50.0233C139.184 50.3302 137.414 50.4837 134.735 50.4837H127.047V24.7718ZM133.696 29.173V34.891C133.98 34.88 134.201 34.8747 134.359 34.8751C135.012 34.8751 135.428 34.7135 135.607 34.3903C135.786 34.067 135.875 33.1433 135.875 31.6189C135.875 30.8147 135.802 30.251 135.654 29.9277C135.507 29.6045 135.316 29.4005 135.08 29.3159C134.842 29.2303 134.381 29.1819 133.696 29.1708V29.173ZM133.696 38.8933V46.0875C134.633 46.0557 135.231 45.9076 135.49 45.643C135.749 45.3785 135.878 44.7272 135.877 43.6892V41.2887C135.877 40.1877 135.761 39.5207 135.529 39.2879C135.298 39.0551 134.687 38.9224 133.696 38.8897V38.8933Z" fill="white"/>
</g>
<defs>
<linearGradient id="paint0_linear" x1="142.143" y1="73.8008" x2="142.143" y2="29.1975" gradientUnits="userSpaceOnUse">
<stop stop-color="#2F8992"/>
<stop offset="0.36" stop-color="#00BCBE"/>
<stop offset="1" stop-color="#D0F0EB"/>
</linearGradient>
<linearGradient id="paint1_linear" x1="148.052" y1="73.8009" x2="148.052" y2="13.247" gradientUnits="userSpaceOnUse">
<stop stop-color="#2F8992"/>
<stop offset="0.33" stop-color="#00BCBE"/>
<stop offset="1" stop-color="#D0F0EB"/>
</linearGradient>
<linearGradient id="paint2_linear" x1="159.887" y1="74" x2="159.887" y2="2.44451" gradientUnits="userSpaceOnUse">
<stop stop-color="#2F8992"/>
<stop offset="0.38" stop-color="#00BCBE"/>
<stop offset="1" stop-color="#D0F0EB"/>
</linearGradient>
<clipPath id="clip0">
<rect width="186" height="74" fill="white"/>
</clipPath>
</defs>
</svg>
